<svg xmlns="http://www.w3.org/2000/svg" viewBox="0 0 1000 1000">
  <path d="M500 10c-81.8 0-162.8 20.6-234.3 59.6-9.4 5.1-12.9 16.9-7.7 26.3 5.1 9.4 16.9 12.9 26.3 7.7C350.1 67.8 424.6 48.8 500 48.8c248.8 0 451.2 202.4 451.2 451.2S748.8 951.2 500 951.2 48.8 748.8 48.8 500c0-121.5 47.6-235.5 134.2-321 7.6-7.5 7.7-19.8.2-27.4-7.5-7.6-19.8-7.7-27.4-.2C61.8 244.2 10 368 10 500c0 270.2 219.8 490 490 490s490-219.8 490-490S770.2 10 500 10z"/>
  <path d="M329.1 779.9c3.8 5.4 9.8 8.2 15.9 8.2 3.9 0 7.7-1.1 11.1-3.5L738 515.9c5.2-3.6 8.2-9.5 8.2-15.9s-3.1-12.2-8.2-15.9L356.2 215.4c-5.9-4.2-13.7-4.7-20.1-1.4-6.4 3.3-10.5 10-10.5 17.2v367.3c0 10.7 8.7 19.4 19.4 19.4s19.4-8.7 19.4-19.4v-330L693.2 500 333.8 752.8c-8.7 6.2-10.8 18.3-4.7 27.1z"/>
</svg>
